<svg width="133.06mm" height="133.06mm" version="1.1" viewBox="0 0 133.06 133.06" xmlns="http://www.w3.org/2000/svg">
 <g transform="translate(-45.065 -65.645)">
  <rect x="45.065" y="65.645" width="133.06" height="133.06" stroke-width=".26458"/>
  <g transform="matrix(.39211 0 0 .39211 1.4817 -9.9685)" fill="#fff" style="shape-inside:url(#rect275);white-space:pre" aria-label="ST">
   <path d="m220.64 427.26q-11.344 0-21.281-1.875-9.8438-1.7812-18.281-5.4375l2.4375-18.938q10.312 4.4062 19.875 6.75 9.6562 2.25 18.75 2.25 13.125 0 19.5-4.5938t6.375-13.969q0-11.906-12.188-17.438l-23.062-10.5q-13.594-6.1875-20.906-14.906-7.2188-8.7188-7.2188-21.656 0-17.438 10.5-27t29.719-9.5625q13.406 0 23.719 3.9375t19.875 12.844l-13.125 13.312q-8.25-6.75-15.469-9.75-7.125-3.0938-14.906-3.0938-9.6562 0-15 4.6875-5.25 4.5938-5.25 13.688 0 6.4688 3.4688 10.594 3.4688 4.0312 10.219 7.2188l19.5 9.1875q14.812 6.9375 22.5 15.656t7.6875 22.406q0 18.094-11.812 27.188-11.719 9-35.625 9z"/>
   <path d="m328.36 425.38v-133.12h18.75v133.12zm-39.375-115.31v-17.812h97.5v17.812z"/>
  </g>
 </g>
</svg>
